Coordinates
nRows=245
nColumns=2
inDegrees=yes
endheader
time	ankle_angle_r	
2.72782	  9.384114	
2.76109	  9.370349	
2.79435	  9.367165	
2.82762	  9.369543	
2.86089	  9.367378	
2.89415	  9.359997	
2.92742	  9.352732	
2.96069	  9.350040	
2.99395	  9.353463	
3.02722	  9.359772	
3.06048	  9.364475	
3.09375	  9.366014	
3.12702	  9.364414	
3.16028	  9.363031	
3.19355	  9.366991	
3.22681	  9.374830	
3.26008	  9.381462	
3.29335	  9.386134	
3.32661	  9.391149	
3.35988	  9.399284	
3.39315	  9.410831	
3.42641	  9.421277	
3.45968	  9.427155	
3.49294	  9.429999	
3.52621	  9.434005	
3.55948	  9.444252	
3.59274	  9.458720	
3.62601	  9.464228	
3.65927	  9.451859	
3.69254	  9.427888	
3.72581	  9.404372	
3.75907	  9.391938	
3.79234	  9.398482	
3.8256	  9.421140	
3.85887	  9.446323	
3.89214	  9.460985	
3.9254	  9.459677	
3.95867	  9.448957	
3.99194	  9.442242	
4.0252	  9.444813	
4.05847	  9.452536	
4.09173	  9.460216	
4.125	  9.462347	
4.15827	  9.456634	
4.19153	  9.449314	
4.2248	  9.446118	
4.25806	  9.445134	
4.29133	  9.444151	
4.3246	  9.441637	
4.35786	  9.434561	
4.39113	  9.423433	
4.4244	  9.409335	
4.45766	  9.392287	
4.49093	  9.379046	
4.52419	  9.376521	
4.55746	  9.379840	
4.59073	  9.379547	
4.62399	  9.373713	
4.65726	  9.367603	
4.69052	  9.364233	
4.72379	  9.361192	
4.75706	  9.358420	
4.79032	  9.358354	
4.82359	  9.361103	
4.85685	  9.366829	
4.89012	  9.373318	
4.92339	  9.374634	
4.95665	  9.370529	
4.98992	  9.367505	
5.02319	  9.370249	
5.05645	  9.377914	
5.08972	  9.384006	
5.12298	  9.382723	
5.15625	  9.377440	
5.18952	  9.374886	
5.22278	  9.376306	
5.25605	  9.380389	
5.28931	  9.384583	
5.32258	  9.385256	
5.35585	  9.384136	
5.38911	  9.384833	
5.42238	  9.385412	
5.45565	  9.384458	
5.48891	  9.383621	
5.52218	  9.382004	
5.55544	  9.379160	
5.58871	  9.377795	
5.62198	  9.378919	
5.65524	  9.381825	
5.68851	  9.384826	
5.72177	  9.384191	
5.75504	  9.380276	
5.78831	  9.378194	
5.82157	  9.380165	
5.85484	  9.387273	
5.8881	  9.400780	
5.92137	  9.414815	
5.95464	  9.420970	
5.9879	  9.418848	
6.02117	  9.413211	
6.05444	  9.410188	
6.0877	  9.414450	
6.12097	  9.421971	
6.15423	  9.427378	
6.1875	  9.433532	
6.22077	  9.442670	
6.25403	  9.453026	
6.2873	  9.463047	
6.32056	  9.470512	
6.35383	  9.475670	
6.3871	  9.479627	
6.42036	  9.478999	
6.45363	  9.473704	
6.4869	  9.470886	
6.52016	  9.472404	
6.55343	  9.469771	
6.58669	  9.458231	
6.61996	  9.446651	
6.65323	  9.441986	
6.68649	  9.435229	
6.71976	  9.419308	
6.75302	  9.401438	
6.78629	  9.386989	
6.81956	  9.375421	
6.85282	  9.367484	
6.88609	  9.360138	
6.91935	  9.348782	
6.95262	  9.336236	
6.98589	  9.329067	
7.01915	  9.329820	
7.05242	  9.334377	
7.08569	  9.335636	
7.11895	  9.332657	
7.15222	  9.331224	
7.18548	  9.333741	
7.21875	  9.337958	
7.25202	  9.341606	
7.28528	  9.341555	
7.31855	  9.338451	
7.35181	  9.338709	
7.38508	  9.342657	
7.41835	  9.344307	
7.45161	  9.343150	
7.48488	  9.341532	
7.51815	  9.340006	
7.55141	  9.340551	
7.58468	  9.344031	
7.61794	  9.349745	
7.65121	  9.358028	
7.68448	  9.365398	
7.71774	  9.368225	
7.75101	  9.372069	
7.78427	  9.384705	
7.81754	  9.406865	
7.85081	  9.429049	
7.88407	  9.435906	
7.91734	  9.428892	
7.9506	  9.428439	
7.98387	  9.440255	
8.01714	  9.449447	
8.0504	  9.448871	
8.08367	  9.445069	
8.11694	  9.443489	
8.1502	  9.440629	
8.18347	  9.428798	
8.21673	  9.411064	
8.25	  9.400185	
8.28327	  9.399084	
8.31653	  9.400078	
8.3498	  9.398361	
8.38306	  9.394005	
8.41633	  9.388297	
8.4496	  9.382729	
8.48286	  9.379438	
8.51613	  9.379610	
8.5494	  9.381115	
8.58266	  9.381952	
8.61593	  9.382933	
8.64919	  9.383380	
8.68246	  9.380652	
8.71573	  9.376170	
8.74899	  9.374454	
8.78226	  9.376527	
8.81552	  9.380238	
8.84879	  9.382588	
8.88206	  9.381209	
8.91532	  9.378080	
8.94859	  9.376449	
8.98185	  9.375598	
9.01512	  9.374727	
9.04839	  9.375270	
9.08165	  9.379108	
9.11492	  9.389676	
9.14819	  9.406923	
9.18145	  9.421788	
9.21472	  9.424982	
9.24798	  9.416814	
9.28125	  9.406395	
9.31452	  9.404627	
9.34778	  9.414773	
9.38105	  9.431298	
9.41431	  9.449253	
9.44758	  9.467069	
9.48085	  9.480760	
9.51411	  9.486408	
9.54738	  9.484954	
9.58065	  9.477011	
9.61391	  9.464006	
9.64718	  9.452266	
9.68044	  9.446725	
9.71371	  9.451996	
9.74698	  9.473658	
9.78024	  9.506814	
9.81351	  9.537426	
9.84677	  9.556377	
9.88004	  9.563586	
9.91331	  9.564927	
9.94657	  9.564867	
9.97984	  9.560716	
10.0131	  9.549570	
10.0464	  9.533502	
10.0796	  9.516752	
10.1129	  9.505993	
10.1462	  9.506139	
10.1794	  9.513800	
10.2127	  9.517952	
10.246	  9.502771	
10.2792	  9.462122	
10.3125	  9.413561	
10.3458	  9.380465	
10.379	  9.367870	
10.4123	  9.366085	
10.4456	  9.365942	
10.4788	  9.365253	
10.5121	  9.365040	
10.5454	  9.363651	
10.5786	  9.359476	
10.6119	  9.354966	
10.6452	  9.352073	
10.6784	  9.350164	
10.7117	  9.348095	
10.745	  9.343955	
10.7782	  9.340536	
10.8115	  9.347938	
10.8448	  9.368917	
